<?xml version="1.0" encoding="UTF-8" standalone="no"?>
<!DOCTYPE svg PUBLIC "-//W3C//DTD SVG 1.1//EN" "http://www.w3.org/Graphics/SVG/1.1/DTD/svg11.dtd">
<svg width="100%" height="100%" viewBox="0 0 3258 977" version="1.1" xmlns="http://www.w3.org/2000/svg" xmlns:xlink="http://www.w3.org/1999/xlink" xml:space="preserve" xmlns:serif="http://www.serif.com/" style="fill-rule:evenodd;clip-rule:evenodd;stroke-linejoin:round;stroke-miterlimit:2;">
    <g transform="matrix(4.16667,0,0,4.16667,601.371,976.599)">
        <path d="M0,-201.901C-22.836,-201.901 -43.934,-194.265 -60.871,-181.431L-60.302,-179.386L-59.119,-179.08C-42.678,-191.564 -22.193,-198.981 0,-198.981C54.053,-198.981 98.031,-155.003 98.031,-100.951C98.031,-46.883 54.053,-2.921 0,-2.921C-54.053,-2.921 -98.03,-46.883 -98.03,-100.951C-98.03,-116.442 -94.409,-131.116 -87.97,-144.154L-89.095,-148.374C-96.657,-134.226 -100.95,-118.078 -100.95,-100.951C-100.95,-45.277 -55.658,0 0,0C55.659,0 100.951,-45.277 100.951,-100.951C100.951,-156.609 55.659,-201.901 0,-201.901" style="fill:rgb(32,32,32);fill-rule:nonzero;"/>
    </g>
    <g transform="matrix(4.16667,0,0,4.16667,1716.53,963.242)">
        <path d="M0,-196.061C-54.054,-196.061 -98.03,-152.084 -98.03,-98.03C-98.03,-43.977 -54.054,-0 0,-0C54.054,-0 98.031,-43.977 98.031,-98.03C98.031,-152.084 54.054,-196.061 0,-196.061M0,2.92C-55.665,2.92 -100.95,-42.366 -100.95,-98.03C-100.95,-153.695 -55.665,-198.981 0,-198.981C55.664,-198.981 100.951,-153.695 100.951,-98.03C100.951,-42.366 55.664,2.92 0,2.92" style="fill:rgb(32,32,32);fill-rule:nonzero;"/>
    </g>
    <g transform="matrix(4.16667,0,0,4.16667,2836.47,962.503)">
        <path d="M0,-196.061C-54.053,-196.061 -98.029,-152.084 -98.029,-98.031C-98.029,-43.977 -54.053,-0 0,-0C54.055,-0 98.031,-43.977 98.031,-98.031C98.031,-152.084 54.055,-196.061 0,-196.061M0,2.92C-55.664,2.92 -100.949,-42.366 -100.949,-98.031C-100.949,-153.695 -55.664,-198.981 0,-198.981C55.665,-198.981 100.952,-153.695 100.952,-98.031C100.952,-42.366 55.665,2.92 0,2.92" style="fill:rgb(32,32,32);fill-rule:nonzero;"/>
    </g>
    <g transform="matrix(4.16667,0,0,4.16667,875.802,546.373)">
        <path d="M0,4.607C-2.934,16.062 -6.146,25.284 -9.777,32.405C-13.41,39.389 -18.299,42.882 -24.586,42.882C-34.642,42.882 -37.295,36.179 -34.362,18.717L-31.43,2.375C-28.496,-14.387 -32.407,-20.394 -41.488,-20.394C-50.008,-20.394 -56.433,-10.9 -58.25,2.375L-63.697,41.486L-83.114,41.486L-77.667,2.375C-75.291,-14.387 -78.924,-20.394 -88.003,-20.394C-96.524,-20.394 -103.648,-10.477 -106.024,3.07L-111.331,41.486L-131.726,41.486L-120.83,-36.742L-100.436,-36.742L-105.465,-0.422C-100.297,-24.31 -89.54,-38.275 -74.454,-38.275C-61.183,-38.275 -54.06,-28.221 -56.854,-7.408L-57.271,-4.192C-52.104,-25.424 -43.443,-38.275 -27.937,-38.275C-12.989,-38.275 -6.844,-26.961 -10.336,-7.543L-13.69,10.473C-15.784,22.069 -14.388,24.861 -10.896,24.861C-7.403,24.861 -4.609,19.135 -0.837,4.607L0,4.607Z" style="fill:rgb(32,32,32);fill-rule:nonzero;"/>
    </g>
    <g transform="matrix(4.16667,0,0,4.16667,330.436,395.75)">
        <path d="M0,76.906L18.92,76.906L24.14,39.12C24.349,37.931 24.591,36.777 24.864,35.656L24.7,35.628L29.614,0.137L10.692,0.137L0,76.906ZM48.611,76.906L66.554,76.906L71.915,38.423C72.23,36.12 72.675,33.949 73.235,31.926L72.892,31.863L73.31,28.648C74.84,17.26 73.361,8.631 69.038,3.687C66.088,0.315 61.848,-1.395 56.434,-1.395C44.56,-1.395 35.141,7.685 29.301,24.458C32.853,18.526 37.66,15.025 42.885,15.025C46.796,15.025 49.636,16.107 51.568,18.332C54.648,21.88 55.403,28.328 53.943,38.626L48.611,76.906ZM89.399,15.025C93.417,15.025 96.317,16.153 98.269,18.473C101.298,22.08 101.923,28.679 100.178,38.65L97.244,54.996C95.408,65.928 95.814,72.256 98.562,75.504C100.154,77.386 102.687,78.302 106.303,78.302C112.302,78.302 116.933,75.003 120.463,68.218C122.024,65.156 123.512,61.7 124.94,57.809C123.37,60.555 121.786,61.74 119.992,61.74C118.563,61.74 117.509,61.309 116.769,60.423C115.151,58.488 115.064,54.322 116.479,46.493L119.834,28.472C121.81,17.491 120.643,9.042 116.462,4.041C113.445,0.434 108.899,-1.395 102.95,-1.395C90.932,-1.395 82.52,6.497 76.86,23.282C80.056,18.038 84.43,15.025 89.399,15.025M106.303,79.761C102.23,79.761 99.333,78.677 97.447,76.447C94.396,72.842 93.891,66.149 95.806,54.746L98.74,38.394C100.405,28.879 99.885,22.669 97.15,19.413C95.495,17.443 92.96,16.485 89.399,16.485C81.618,16.485 75.174,25.382 73.361,38.623L67.826,78.366L46.934,78.366L52.498,38.423C53.875,28.708 53.209,22.45 50.466,19.289C48.827,17.402 46.348,16.485 42.885,16.485C34.934,16.485 27.981,25.673 25.582,39.345L20.191,78.366L-1.677,78.366L9.421,-1.323L31.291,-1.323L27.696,24.638C33.737,6.809 43.73,-2.855 56.434,-2.855C62.286,-2.855 66.897,-0.977 70.137,2.726C74.072,7.225 75.797,14.162 75.284,23.39C81.166,5.534 90.076,-2.855 102.95,-2.855C109.353,-2.855 114.275,-0.85 117.581,3.105C122.049,8.447 123.325,17.31 121.27,28.735L117.915,46.756C116.623,53.915 116.613,57.961 117.888,59.487C118.348,60.036 118.996,60.28 119.992,60.28C123.001,60.28 125.71,54.57 129.344,40.573L129.486,40.026L131.829,40.026L131.595,40.937C128.597,52.649 125.38,61.791 121.761,68.885C118.007,76.104 112.807,79.761 106.303,79.761" style="fill:rgb(32,32,32);fill-rule:nonzero;"/>
    </g>
    <g transform="matrix(4.16667,0,0,4.16667,2623.08,477.502)">
        <path d="M0,24.147C3.657,26.094 7.504,27.988 11.467,29.796C14.074,22.039 15.395,13.739 15.395,5.098C15.395,4.474 15.375,3.696 15.336,2.766C8.489,9.344 3.341,16.519 0,24.147M15.663,31.567C35.428,39.773 54.773,43.932 73.184,43.932C95.912,43.932 106.961,36.444 106.961,21.038C106.961,10.507 102.641,1.26 94.121,-6.452C85.56,-14.198 74.928,-18.127 62.521,-18.127C54.907,-18.127 47.25,-16.519 39.763,-13.345C32.463,-10.252 25.646,-6.075 19.491,-0.923C19.724,0.957 19.841,3.126 19.841,5.539C19.841,14.109 18.436,22.858 15.663,31.567M-1.653,28.631C-2.638,31.892 -3.135,34.988 -3.135,37.856C-3.135,44.482 -0.712,44.482 0.084,44.482C3.557,44.482 6.723,41.285 9.506,34.976C6.481,33.365 2.738,31.237 -1.653,28.631M73.844,52.775C55.205,52.775 34.979,47.483 13.704,37.043C9.551,47.624 4.943,52.775 -0.356,52.775C-5.149,52.775 -7.58,48.459 -7.58,39.945C-7.58,35.396 -6.92,30.761 -5.617,26.15C-9.028,23.924 -12.156,21.774 -14.923,19.747L-15.798,19.107L-14.296,15.354L-12.849,16.378C-10.295,18.187 -7.396,20.023 -4.215,21.847C-0.615,11.685 5.594,2.352 14.266,-5.923C12.761,-12.314 9.437,-18.736 4.381,-25.023L3.491,-26.131L6.697,-28.628L7.559,-27.535C12.475,-21.288 15.898,-15.096 17.756,-9.094C23.786,-14.333 30.493,-18.583 37.723,-21.739C45.668,-25.21 53.864,-26.969 62.082,-26.969C75.959,-26.969 87.773,-22.228 97.197,-12.878C106.627,-3.522 111.407,8.036 111.407,21.477C111.407,42.245 98.77,52.775 73.844,52.775" style="fill:rgb(32,32,32);fill-rule:nonzero;"/>
    </g>
    <g transform="matrix(4.16667,0,0,4.16667,2627.02,477.643)">
        <path d="M0,23.787C3.217,25.485 6.603,27.154 10.083,28.759C12.496,21.302 13.72,13.334 13.72,5.064C13.72,4.865 13.718,4.65 13.714,4.419C7.706,10.428 3.1,16.934 0,23.787M10.954,30.763L10.218,30.427C6.23,28.607 2.361,26.7 -1.288,24.758L-1.884,24.439L-1.613,23.82C1.759,16.119 6.974,8.847 13.885,2.206L15.054,1.083L15.121,2.702C15.159,3.644 15.18,4.433 15.18,5.064C15.18,13.778 13.845,22.166 11.213,29.995L10.954,30.763ZM15.616,31.114C35.074,39.114 54.12,43.169 72.238,43.169C94.477,43.169 105.286,35.919 105.286,21.004C105.286,10.69 101.047,1.624 92.686,-5.944C84.263,-13.567 73.796,-17.431 61.576,-17.431C54.06,-17.431 46.499,-15.841 39.103,-12.707C31.989,-9.693 25.334,-5.637 19.317,-0.65C19.521,1.162 19.625,3.229 19.625,5.505C19.625,13.933 18.276,22.547 15.616,31.114M72.238,44.629C53.736,44.629 34.289,40.45 14.439,32.208L13.82,31.95L14.023,31.311C16.772,22.677 18.165,13.994 18.165,5.505C18.165,3.121 18.05,0.977 17.821,-0.867L17.773,-1.262L18.077,-1.517C24.285,-6.713 31.168,-10.93 38.532,-14.051C46.11,-17.263 53.863,-18.891 61.576,-18.891C74.169,-18.891 84.966,-14.9 93.666,-7.026C102.346,0.83 106.746,10.261 106.746,21.004C106.746,36.901 95.459,44.629 72.238,44.629M-2.159,29.706C-2.949,32.563 -3.35,35.29 -3.35,37.822C-3.35,43.718 -1.478,43.718 -0.861,43.718C2.183,43.718 5.033,40.874 7.615,35.264C4.881,33.791 1.6,31.926 -2.159,29.706M-0.861,45.178C-3.518,45.178 -4.81,42.772 -4.81,37.822C-4.81,34.884 -4.301,31.709 -3.297,28.387L-3.027,27.494L-2.227,27.97C2.139,30.559 5.883,32.688 8.904,34.297L9.502,34.616L9.228,35.236C6.319,41.833 2.924,45.178 -0.861,45.178M12.367,36.005L13.08,36.354C34.252,46.743 54.377,52.011 72.898,52.011C97.339,52.011 109.731,41.726 109.731,21.443C109.731,8.205 105.023,-3.18 95.736,-12.394C86.456,-21.603 74.813,-26.273 61.137,-26.273C53.018,-26.273 44.92,-24.534 37.069,-21.104C29.916,-17.981 23.262,-13.766 17.29,-8.576L16.444,-7.842L16.113,-8.912C14.282,-14.824 10.895,-20.949 6.041,-27.117L5.628,-27.64L3.578,-26.044L4.005,-25.514C9.127,-19.144 12.5,-12.62 14.03,-6.124L14.127,-5.717L13.823,-5.428C5.244,2.759 -0.911,12.007 -4.472,22.058L-4.765,22.883L-5.524,22.447C-8.732,20.606 -11.657,18.753 -14.216,16.94L-14.908,16.451L-15.854,18.818L-15.437,19.125C-12.69,21.135 -9.57,23.282 -6.163,25.505L-5.714,25.799L-5.859,26.314C-7.144,30.86 -7.796,35.434 -7.796,39.912C-7.796,47.94 -5.609,52.011 -1.301,52.011C3.67,52.011 8.047,47.017 12.078,36.743L12.367,36.005ZM72.898,53.471C54.359,53.471 34.261,48.27 13.145,38.011C8.941,48.411 4.212,53.471 -1.301,53.471C-6.579,53.471 -9.256,48.909 -9.256,39.912C-9.256,35.471 -8.634,30.939 -7.408,26.435C-10.664,24.302 -13.653,22.24 -16.3,20.303L-17.631,19.327L-15.575,14.189L-13.372,15.748C-11.053,17.392 -8.425,19.071 -5.55,20.745C-1.917,10.914 4.157,1.856 12.512,-6.193C10.989,-12.342 7.745,-18.533 2.867,-24.599L1.511,-26.285L5.876,-29.684L7.187,-28.02C11.867,-22.074 15.221,-16.15 17.167,-10.395C23.034,-15.354 29.528,-19.404 36.484,-22.442C44.521,-25.953 52.815,-27.733 61.137,-27.733C75.213,-27.733 87.2,-22.921 96.767,-13.43C106.338,-3.932 111.191,7.801 111.191,21.443C111.191,42.695 98.308,53.471 72.898,53.471" style="fill:rgb(32,32,32);fill-rule:nonzero;"/>
    </g>
    <g transform="matrix(4.16667,0,0,4.16667,1556.63,609.415)">
        <path d="M0,-26.225C3.983,-27.11 7.597,-27.609 10.844,-27.719C14.089,-27.829 17.076,-27.7 19.807,-27.332C22.535,-26.961 25.079,-26.409 27.441,-25.671C29.802,-24.933 32.089,-24.159 34.303,-23.348C36.294,-22.684 38.045,-22.112 39.558,-21.633C41.069,-21.153 42.526,-20.765 43.929,-20.472C45.329,-20.175 46.806,-19.954 48.354,-19.807C49.903,-19.659 51.747,-19.586 53.887,-19.586C55.288,-19.586 56.819,-19.752 58.479,-20.084C60.139,-20.416 61.816,-20.765 63.515,-21.136C66.464,-21.799 68.881,-22.886 70.762,-24.399C72.643,-25.911 73.987,-27.625 74.8,-29.544C75.611,-31.461 75.907,-33.434 75.686,-35.464C75.464,-37.493 74.707,-39.354 73.417,-41.053C72.126,-42.749 70.337,-44.132 68.051,-45.202C65.764,-46.27 62.961,-46.806 59.642,-46.806L0.11,-46.806L0,-26.225ZM53.923,-14.717C50.535,-14.569 47.459,-14.773 44.696,-15.326C41.934,-15.879 39.283,-16.579 36.741,-17.428C34.199,-18.276 31.676,-19.143 29.172,-20.029C26.667,-20.913 23.996,-21.633 21.16,-22.187C18.325,-22.74 15.175,-22.979 11.714,-22.905C8.25,-22.83 4.347,-22.278 0,-21.246L-0.11,20.581L49.947,20.581C55.471,20.581 60.241,20.341 64.256,19.862C68.271,19.382 71.566,18.515 74.147,17.26C76.504,16.155 78.271,14.679 79.45,12.835C80.628,10.992 81.218,8.669 81.218,5.863C81.218,2.251 80.573,-0.812 79.284,-3.32C77.994,-5.827 76.172,-7.874 73.814,-9.461C71.456,-11.046 68.603,-12.264 65.252,-13.114C61.898,-13.96 58.123,-14.496 53.923,-14.717M-4.979,-23.016L-4.979,-23.348L-4.869,-49.24C-4.869,-49.976 -4.63,-50.568 -4.149,-51.011C-3.671,-51.454 -3.098,-51.675 -2.435,-51.675L59.531,-51.675C63.515,-51.675 66.944,-51.011 69.821,-49.683C72.697,-48.355 75.002,-46.622 76.736,-44.482C78.47,-42.343 79.613,-39.963 80.167,-37.346C80.72,-34.726 80.627,-32.162 79.891,-29.656C79.151,-27.147 77.788,-24.787 75.797,-22.573C73.805,-20.361 71.11,-18.625 67.719,-17.372C73.987,-15.603 78.618,-12.782 81.605,-8.909C84.594,-5.036 86.087,-0.111 86.087,5.863C86.087,10.439 84.998,14.015 82.822,16.596C80.646,19.18 77.844,21.133 74.413,22.461C70.982,23.789 67.11,24.619 62.795,24.951C58.479,25.283 54.181,25.45 49.903,25.45L-2.767,25.45C-3.43,25.45 -4.003,25.211 -4.481,24.73C-4.962,24.252 -5.2,23.606 -5.2,22.793L-4.979,-23.016Z" style="fill:rgb(1,2,3);fill-rule:nonzero;"/>
    </g>
    <g transform="matrix(4.16667,0,0,4.16667,1610.85,624.416)">
        <path d="M0,-33.424C2.511,-33.424 4.88,-33.276 7.069,-32.982C9.905,-32.596 12.587,-32.012 15.045,-31.244C17.41,-30.506 19.75,-29.714 22,-28.889C23.924,-28.25 25.666,-27.68 27.169,-27.203C28.604,-26.747 30.007,-26.376 31.341,-26.096C32.65,-25.819 34.062,-25.606 35.538,-25.465C37.005,-25.324 38.801,-25.253 40.875,-25.253C42.131,-25.253 43.54,-25.408 45.06,-25.712C46.71,-26.042 48.375,-26.39 50.062,-26.757C52.678,-27.345 54.832,-28.306 56.453,-29.611C58.055,-30.898 59.208,-32.358 59.884,-33.95C60.562,-35.552 60.801,-37.152 60.618,-38.841C60.437,-40.502 59.827,-41.994 58.758,-43.403C57.678,-44.821 56.131,-46.008 54.162,-46.929C52.16,-47.865 49.626,-48.339 46.628,-48.339L-10.846,-48.339L-10.932,-32.363C-7.808,-32.951 -4.893,-33.295 -2.24,-33.386C-1.482,-33.412 -0.735,-33.424 0,-33.424M-11.05,14.912L36.934,14.912C42.362,14.912 47.094,14.676 50.997,14.208C54.761,13.76 57.866,12.95 60.23,11.802C62.241,10.858 63.734,9.624 64.695,8.121C65.652,6.625 66.138,4.654 66.138,2.264C66.138,-1.002 65.564,-3.774 64.433,-5.976C63.31,-8.158 61.7,-9.965 59.647,-11.347C57.496,-12.791 54.832,-13.923 51.731,-14.709C48.546,-15.515 44.902,-16.031 40.9,-16.246C37.4,-16.103 34.17,-16.319 31.278,-16.899C28.429,-17.47 25.67,-18.2 23.073,-19.067C20.521,-19.919 17.985,-20.79 15.469,-21.681C13.077,-22.527 10.479,-23.225 7.751,-23.759C5.073,-24.28 2.035,-24.514 -1.255,-24.438C-4.134,-24.377 -7.389,-23.958 -10.949,-23.193L-11.05,14.912ZM36.891,23.918L-15.778,23.918C-16.994,23.918 -18.094,23.457 -18.96,22.588C-19.559,21.993 -20.281,20.913 -20.281,19.193L-19.949,-52.851C-19.949,-54.159 -19.47,-55.297 -18.563,-56.132C-17.708,-56.923 -16.63,-57.342 -15.447,-57.342L46.518,-57.342C50.785,-57.342 54.537,-56.609 57.675,-55.162C60.828,-53.705 63.404,-51.761 65.33,-49.384C67.264,-46.998 68.559,-44.303 69.178,-41.374C69.8,-38.429 69.693,-35.501 68.862,-32.673C68.039,-29.876 66.511,-27.224 64.321,-24.79C63.128,-23.466 61.708,-22.292 60.072,-21.278C64.405,-19.421 67.812,-16.906 70.23,-13.772C73.489,-9.546 75.142,-4.151 75.142,2.264C75.142,7.315 73.881,11.375 71.392,14.329C69,17.167 65.891,19.341 62.146,20.788C58.542,22.183 54.436,23.067 49.94,23.411C45.588,23.748 41.196,23.918 36.891,23.918" style="fill:rgb(32,32,32);fill-rule:nonzero;"/>
    </g>
    <g transform="matrix(4.16667,0,0,4.16667,235.075,241.033)">
        <path d="M0,21.187L-44.357,10.484L-0.059,-0.948L12.484,-46.824L24.544,-3.153C25.362,-3.825 26.194,-4.467 27.026,-5.109L12.47,-57.848L-2.424,-3.357L-56.418,10.572L-2.365,23.611L-1.197,27.947C-0.555,26.721 0.132,25.509 0.847,24.326L0,21.187ZM28.778,-2.759C27.801,-2.028 26.837,-1.27 25.888,-0.496L69.252,10.484L24.997,21.114L12.484,67.764L1.913,28.327C1.212,29.583 0.555,30.867 -0.073,32.166L12.47,79.035L27.377,23.552L81.444,10.572L28.778,-2.759Z" style="fill:rgb(32,32,32);fill-rule:nonzero;"/>
    </g>
    <g transform="matrix(4.16667,0,0,4.16667,354.985,229.172)">
        <path d="M0,0.088C-0.978,0.818 -1.941,1.577 -2.891,2.351L-3.548,2.191L-4.234,-0.306C-3.416,-0.978 -2.584,-1.62 -1.752,-2.263L-1.183,-0.219L0,0.088Z" style="fill:rgb(1,2,3);fill-rule:nonzero;"/>
    </g>
    <g transform="matrix(0.504042,-4.13607,-4.13607,-0.504042,237.682,352.336)">
        <path d="M-1.446,-1.473C-2.778,-0.929 -4.133,-0.433 -5.498,0.034L-1.446,1.66C-0.151,1.171 1.136,0.636 2.395,0.069L-1.446,-1.473Z" style="fill:rgb(1,2,3);fill-rule:nonzero;"/>
    </g>
</svg>
